<?xml version="1.0" encoding="UTF-8"?>
<svg width="275.79mm" height="275.79mm" version="1.1" viewBox="0 0 275.79 275.79" xmlns="http://www.w3.org/2000/svg">
  <g transform="translate(-126.45 22.048)">
    <g stroke-width=".91904">
      <path d="m142.03 205c0-1.9502-8.1234-74.084-8.1234-74.084l22.42-106.25 98.457 51.664 24.37 0.64975 75.059-59.787 39.642 90.98-5.5234 92.933z" fill="#f7f7f7"/>
      <path d="m169.88-17.106a11.73 11.73 0 0 0-3.224 0.35476c-2.7507 0.70121-5.4104 2.452-7.9763 5.346-5.1999 5.8653-9.5672 15.918-13.132 29.002-3.542 13.002-6.2063 28.665-8.196 45.456-3.9794 33.573-5.2275 71.379-5.4766 100.83-0.1249 14.718 0 27.331 0.15519 36.264 0.0781 4.4656 0.16371 8.0104 0.22971 10.438 0.0248 0.92548 0.0513 1.851 0.0809 2.7764 9e-3 0.31523 0.0142 0.55508 0.0239 0.715l9e-3 0.17932v0.0624l-2.6349 0.0975 2.6349-0.0956v0.63599c0 0.34186-9.2e-4 0.85378 9e-3 1.5238 0.0142 1.3418 0.0525 3.3168 0.1488 5.8368 0.19304 5.0418 0.62035 12.256 1.5614 20.917 1.8831 17.338 5.812 40.406 13.981 63.435 8.174 23.042 20.54 45.894 39.203 62.967 18.605 17.019 43.591 28.414 77.314 28.415h5e-3c33.723-9.2e-4 58.709-11.396 77.314-28.415 18.663-17.073 31.029-39.925 39.203-62.967 8.1693-23.029 12.098-46.097 13.981-63.435 0.94108-8.661 1.3684-15.875 1.5614-20.917 0.0965-2.52 0.13509-4.495 0.14881-5.8368 9e-3 -0.66998 9e-3 -1.1819 9e-3 -1.5238v-0.63599l2.6358 0.0956-2.6358-0.0975v-0.0624l9e-3 -0.17932c9e-3 -0.15992 0.0142-0.39977 0.0238-0.715 0.0294-0.92548 0.0561-1.851 0.0809-2.7764a1080.8 1080.8 0 0 0 0.22971-10.438c0.15542-8.933 0.28125-21.547 0.15614-36.264-0.24906-29.451-1.4971-67.257-5.4766-100.83-1.9897-16.791-4.654-32.455-8.196-45.457-3.565-13.084-7.9332-23.137-13.132-29.002-2.566-2.895-5.2266-4.6448-7.9773-5.346a11.732 11.732 0 0 0-3.224-0.35476h-5e-3c-1.8859 0.04968-3.9381 0.53121-6.1851 1.5486-7.3615 3.3324-16.443 12.227-27.379 28.963-20.064 30.705-40.451 47.66-60.184 55.389l-0.96039 0.37682-0.9604-0.37682c-19.732-7.7291-40.119-24.684-60.184-55.389-10.936-16.736-20.018-25.63-27.379-28.963-2.248-1.0174-4.2993-1.4989-6.186-1.5486zm27.445 81.721h2e-3c11.323 0 21.177 2.2222 29.456 6.7899 8.2962 4.4969 14.652 11.125 19.032 19.801l9e-3 9e-3c4.2928 8.5848 6.3772 18.811 6.3772 30.587v20.622c0 11.934-2.0807 22.322-6.3662 31.063l-0.0213 0.0294c-4.3802 8.6748-10.733 15.33-19.021 19.906-8.2815 4.5713-18.139 6.7972-29.466 6.7972-11.327 0-21.177-2.2259-29.456-6.7972-8.2844-4.574-14.601-11.186-18.903-19.788-4.3746-8.6665-6.5013-18.98-6.5013-30.84v-20.993c0-11.777 2.1257-22.005 6.5013-30.592 4.3002-8.6776 10.615-15.308 18.912-19.804 8.2778-4.5676 18.124-6.7917 29.447-6.7917zm134.54 0c11.323 0 21.169 2.2222 29.447 6.7899 8.2971 4.4969 14.612 11.127 18.912 19.804 4.3756 8.5866 6.5013 18.815 6.5013 30.592v20.993c0 11.86-2.1266 22.174-6.5013 30.84-4.302 8.6022-10.619 15.214-18.903 19.788-8.2796 4.5713-18.129 6.7981-29.456 6.7981-11.327 0-21.186-2.2268-29.467-6.7981-8.2879-4.5759-14.641-11.231-19.021-19.906l-9e-3 -0.0142-0.0119-0.0142c-4.2855-8.741-6.368-19.129-6.368-31.063v-20.622c0-11.776 2.0844-22.002 6.3772-30.587l0.0119-9e-3c4.3802-8.6757 10.736-15.304 19.032-19.801 8.2787-4.5676 18.134-6.7908 29.456-6.7908zm-134.54 28.944c-8.1252 0-14.035 2.4805-18.146 7.1584l-0.0189 0.0189c-4.2313 4.733-6.5298 11.632-6.5298 21.068v20.993c0 9.4321 2.2976 16.375 6.5426 21.197l0.0189 0.0166c4.1154 4.7542 10.021 7.2687 18.133 7.2687 8.1068 0 14.075-2.5108 18.275-7.2751 4.1688-4.8204 6.4259-11.768 6.4259-21.206v-20.996c0-9.4404-2.2581-16.342-6.4121-21.075-4.1963-4.6889-10.169-7.1676-18.289-7.1676zm134.54 0c-8.1197 0-14.093 2.4777-18.289 7.1667-4.1541 4.7331-6.4121 11.635-6.4121 21.075v20.996c0 9.4376 2.2581 16.386 6.4268 21.206 4.2 4.7643 10.168 7.2751 18.275 7.2751 8.1114 0 14.017-2.5136 18.133-7.2678l0.0189-0.0166c4.245-4.8213 6.5426-11.765 6.5426-21.197v-20.993c0-9.4358-2.2994-16.335-6.5307-21.068l-0.0189-0.0189c-4.1109-4.6779-10.02-7.1584-18.146-7.1584z" fill="#1880ff"/>
      <path d="m167.71-21.113a14.291 14.291 0 0 0-3.9326 0.42828c-3.3738 0.86021-6.482 2.974-9.2979 6.1502-5.7063 6.436-10.085 16.778-13.703 30.059-3.5953 13.196-6.2725 28.965-8.2714 45.839-3.9997 33.737-5.245 71.61-5.4949 101.11-0.12491 14.745 9.2e-4 27.381 0.15613 36.332a1089.2 1089.2 0 0 0 0.26193 11.582h-0.0166l0.0927 2.6064v0.0624l0.0937 2.5816h-0.0736c0.0166 1.3455 0.0487 3.0678 0.13792 5.3883 0.19493 5.0942 0.62587 12.368 1.5743 21.1 1.8988 17.479 5.8515 40.732 14.117 64.033 8.2704 23.314 20.809 46.557 39.908 64.029 19.037 17.414 47.009 29.108 81.318 29.113h0.0189c34.31-5e-3 62.283-11.699 81.32-29.113 19.1-17.473 31.638-40.715 39.908-64.029 8.2649-23.301 12.22-46.554 14.117-64.033 0.94845-8.7327 1.3786-16.006 1.5734-21.1 0.0892-2.3206 0.12136-4.0429 0.13887-5.3883h-0.0736l0.0927-2.5816v-0.0624l0.0937-2.6064h-0.0189l0.0321-1.1166c0.0662-2.4355 0.15164-5.9903 0.22971-10.465 0.15636-8.9514 0.28215-21.587 0.15636-36.332-0.24906-29.506-1.4953-67.378-5.494-101.11-1.9998-16.874-4.6761-32.642-8.2713-45.839-3.6183-13.281-7.9975-23.623-13.703-30.059-2.816-3.1762-5.9241-5.29-9.2979-6.1502a14.29 14.29 0 0 0-3.9326-0.42828h-2e-3c-2.2783 0.06246-4.7009 0.63689-7.2108 1.7737-8.2254 3.7221-17.431 12.984-28.499 29.922-19.86 30.393-40.528 48.565-59.615 56.043h-3.1091c-19.087-7.4773-39.755-25.65-59.615-56.043-11.067-16.937-20.274-26.199-28.499-29.923-2.5099-1.136-4.9325-1.7103-7.2108-1.7738h-9.2e-4zm-0.12041 5.2505c1.4935 0.03667 3.1707 0.42826 5.1558 1.3262 6.4976 2.9409 15.455 11.468 26.259 28.002 20.268 31.017 41.053 48.421 61.43 56.401l4.1155 1.6488h0.0828l4.1155-1.6478c20.378-7.9818 41.162-25.386 61.43-56.402 10.804-16.534 19.761-25.06 26.259-28.003 3.1753-1.4355 5.5648-1.5771 7.6703-1.0404 2.1276 0.54224 4.3397 1.9272 6.6557 4.54 4.6944 5.2937 9.0498 15.058 12.561 27.946 3.4896 12.807 6.1428 28.364 8.1225 45.072 3.9601 33.405 5.2082 71.147 5.4572 100.54 0.12421 14.69 0 27.282-0.15447 36.196-0.0781 4.4564-0.16442 7.9938-0.22971 10.413l-0.0312 1.0734h-0.0799v3.3655c0 0.34189 0 0.83633-9e-3 1.4879v9e-3a204.48 204.48 0 0 1-0.14619 5.7633c-0.1902 4.9895-0.61576 12.144-1.5486 20.734-1.8684 17.196-5.7725 40.08-13.844 62.837-8.0774 22.77-20.271 45.231-38.498 61.904-18.17 16.622-44.64 28.046-77.772 28.047-33.131 0-59.6-11.426-77.77-28.047-18.227-16.673-30.421-39.133-38.498-61.903-8.0728-22.757-11.977-45.641-13.844-62.837-0.93374-8.5893-1.3583-15.745-1.5495-20.734a207.34 207.34 0 0 1-0.14525-5.7633v-9e-3c-9e-3 -0.65159-0.0118-1.146-0.0118-1.4879v-3.3655h-0.0809l-0.0303-1.0734c-0.0653-2.4198-0.15164-5.9572-0.22971-10.413-0.15448-8.9147-0.27847-21.506-0.15448-36.196 0.24906-29.395 1.4971-67.136 5.4573-100.54 1.9796-16.708 4.6329-32.266 8.1225-45.072 3.5107-12.888 7.867-22.652 12.561-27.946 2.316-2.6128 4.5281-3.9978 6.6557-4.54a9.1665 9.1665 0 0 1 2.5145-0.2849zm27.492 76.451c-11.662 0-21.975 2.2967-30.707 7.1116-8.7529 4.745-15.489 11.826-20.007 20.938-4.5989 9.0305-6.7834 19.687-6.7834 31.775v20.993c0 12.175 2.1864 22.915 6.7853 32.027 4.5217 9.0378 11.255 16.091 19.98 20.91 8.7373 4.824 19.06 7.1244 30.732 7.1244 11.672 0 22.002-2.3004 30.741-7.1244 8.6803-4.7928 15.413-11.833 20.008-20.856l0.0487-0.0717 0.0755-0.15613c4.5005-9.1794 6.6355-19.984 6.6355-32.223v-20.62c0-12.086-2.1386-22.737-6.6539-31.766l-0.1902-0.38232-0.1039-0.10483c-4.5924-8.8696-11.252-15.802-19.846-20.461-8.7327-4.8139-19.053-7.1106-30.712-7.1106v-2e-3l-2e-3 -2e-3zm139.01 0v2e-3c-11.66 0-21.98 2.2958-30.712 7.1097-8.5939 4.6586-15.253 11.591-19.846 20.462l-0.10379 0.1039-0.1902 0.38231c-4.5153 9.0286-6.6539 19.679-6.6539 31.766v20.62c0 12.241 2.1349 23.044 6.6355 32.223l0.0755 0.15613 0.0487 0.0717c4.5961 9.0231 11.329 16.064 20.008 20.856 8.7401 4.8241 19.069 7.1244 30.741 7.1244 11.673 0 21.994-2.3003 30.732-7.1244 8.7263-4.8176 15.458-11.872 19.98-20.91 4.5989-9.1104 6.7853-19.851 6.7853-32.027v-20.993c0-12.088-2.1845-22.744-6.7834-31.775-4.518-9.1123-11.254-16.193-20.008-20.938-8.7318-4.8148-19.045-7.1115-30.707-7.1115l-2e-3 9.2e-4zm-139.02 5.2753h0.0142c10.971 2e-3 20.35 2.1506 28.167 6.4636h9e-3l9e-3 9e-3c7.8385 4.2487 13.775 10.429 17.936 18.671l0.0213 0.0433c4.0576 8.1326 6.085 17.919 6.085 29.366v20.62c0 11.611-2.0256 21.571-6.085 29.867l-0.0213 0.0341c-4.1624 8.2438-10.103 14.46-17.942 18.788-7.8229 4.3186-17.21 6.4673-28.192 6.4673-10.982 0-20.361-2.1487-28.183-6.4673-7.8394-4.3287-13.735-10.498-17.817-18.661v-9e-3c-4.1499-8.2226-6.2149-18.105-6.2149-29.65v-20.993c0-11.46 2.066-21.255 6.2136-29.395l9e-3 -0.0142 9e-3 -0.0119c4.0815-8.2364 9.9707-14.411 17.806-18.657l9e-3 -9e-3h9e-3c7.8174-4.314 17.187-6.4618 28.158-6.4636zm139.02 0h0.0142c10.971 2e-3 20.341 2.1506 28.158 6.4636h9e-3l9e-3 9e-3c7.8348 4.2469 13.725 10.421 17.806 18.657l9e-3 0.0119 9e-3 0.0142c4.1476 8.1399 6.2146 17.936 6.2146 29.395v20.993c0 11.545-2.066 21.427-6.2164 29.65v9e-3c-4.0824 8.162-9.978 14.332-17.817 18.661-7.8219 4.3186-17.202 6.4673-28.183 6.4673s-20.369-2.1487-28.192-6.4673c-7.8403-4.3287-13.78-10.544-17.942-18.788l-0.0189-0.0341c-4.0594-8.2962-6.085-18.256-6.085-29.867v-20.621c0-11.447 2.0256-21.233 6.0831-29.366l0.0213-0.0433c4.1614-8.242 10.097-14.423 17.936-18.671l0.0119-9e-3h9e-3c7.8164-4.313 17.197-6.4608 28.167-6.4636zm-139.01 23.671 2e-3 2e-3c-8.5746 0-15.352 2.7323-19.982 7.901l-0.0551 0.0469-0.0956 0.10575c-4.7634 5.3286-7.1997 12.963-7.1997 22.827v20.993c0 9.8604 2.4373 17.529 7.1997 22.938l0.10195 0.11497 0.0413 0.0375c4.6292 5.2496 11.416 8.0278 19.987 8.0278 8.6518 0 15.538-2.8224 20.253-8.1712l0.0119-9e-3 9e-3 -9e-3c4.6807-5.4122 7.0684-13.072 7.0684-22.929v-20.993c0-9.8613-2.3886-17.484-7.0684-22.816l-0.0213-0.0213c-4.7174-5.2707-11.596-8.0453-20.253-8.0453zm139.01 0c-8.6564 0-15.535 2.7737-20.253 8.0453l-9e-3 9e-3 -0.0119 9e-3c-4.6797 5.3323-7.0683 12.956-7.0683 22.816v20.993c0 9.8576 2.3877 17.517 7.0683 22.929l0.0119 9e-3 9e-3 0.0119c4.7156 5.3488 11.602 8.1703 20.253 8.1703 8.5719 0 15.358-2.7773 19.987-8.0269l0.0413-0.0377 0.10195-0.11497c4.7634-5.4095 7.1998-13.078 7.1998-22.938v-20.993c0-9.8641-2.4355-17.499-7.1998-22.827l-0.0947-0.10574-0.0541-0.0469c-4.6301-5.1687-11.407-7.9019-19.982-7.9019zm-139.01 5.2735h2e-3c7.5747 0 12.635 2.1781 16.309 6.2752 3.6256 4.1338 5.755 10.315 5.755 19.332v20.993c0 9.0121-2.1258 15.242-5.778 19.471-3.6844 4.1734-8.7309 6.3745-16.286 6.3745-7.5674 0-12.541-2.2002-16.14-6.3579l-0.0561-0.0634c-3.712-4.2322-5.8626-10.439-5.8626-19.424v-20.993c0-8.9983 2.157-15.159 5.8488-19.296l0.0433-0.0478c3.5879-4.0842 8.5774-6.2632 16.166-6.2632zm139.01 0c7.5885 0 12.577 2.179 16.166 6.2623l0.0433 0.0487c3.6918 4.1375 5.8478 10.298 5.8478 19.296v20.993c0 8.9845-2.1496 15.192-5.8625 19.424l-0.0532 0.0624c-3.5999 4.1587-8.5737 6.3579-16.14 6.3579-7.5563 0-12.602-2.2011-16.286-6.3736-3.6532-4.2285-5.778-10.459-5.778-19.471v-20.993c0-9.0167 2.1285-15.198 5.7541-19.332 3.6743-4.0971 8.7355-6.2752 16.309-6.2752zm-204.2 120.77h0.13508l-5e-3 0.12041-2.1386-0.0487zm269.25 0h0.13508l2.0063 0.0717-2.1377 0.0487z" fill="#1059b1"/>
      <path d="m195.08 89.531c-8.7051 0-15.461 2.6854-20.261 8.0545-4.7184 5.3699-7.0757 12.981-7.0757 22.826v20.992c0 9.8447 2.3573 17.488 7.0757 22.939 4.8001 5.4508 11.556 8.1785 20.261 8.1785s15.419-2.7277 20.138-8.1785c4.7992-5.4508 7.1998-13.094 7.1998-22.939v-20.992c0-9.8448-2.4005-17.456-7.1998-22.826-4.7193-5.369-11.433-8.0545-20.138-8.0545zm136.19 0c-8.7052 0-15.461 2.6854-20.261 8.0545-4.7184 5.3699-7.0757 12.981-7.0757 22.826v20.992c0 9.8447 2.3573 17.488 7.0757 22.939 4.8001 5.4508 11.556 8.1785 20.261 8.1785 8.7051 0 15.409-2.7277 20.127-8.1785 4.8001-5.4508 7.2007-13.094 7.2007-22.939v-20.992c0-9.8448-2.4005-17.456-7.2007-22.826-4.7184-5.369-11.422-8.0545-20.127-8.0545z" clip-rule="evenodd" fill="#1059b1" fill-rule="evenodd"/>
      <path d="m264.61 179.16-10.373 8.1886 10.373 25.247 10.372-25.247z" fill="#e8c300"/>
    </g>
    <path d="m141.16 217.07c15.181 2.123 24.252 12.058 29.354 26.444 5.1457 14.51 6.1006 33.239 4.9858 51.98-1.112 18.687-4.2625 37.124-7.1446 50.911a414.78 414.78 0 0 1-3.7552 16.346l-0.55784-1.0753a728.82 728.82 0 0 1-9.2235-18.463c-7.3578-15.254-16.465-35.457-23.516-55.341-7.0904-19.991-11.958-39.273-11.151-52.842 0.40254-6.7678 2.1919-11.652 5.3314-14.613 3.0613-2.8876 7.935-4.4307 15.677-3.348zm0.36485-2.611v-9.3e-4zm245.35 2.611c7.742-1.0826 12.616 0.46043 15.677 3.348 3.1394 2.9602 4.9288 7.8449 5.3314 14.613 0.80783 13.569-4.0603 32.851-11.151 52.842-7.0518 19.884-16.159 40.087-23.516 55.341a727.83 727.83 0 0 1-9.7813 19.538 414.78 414.78 0 0 1-3.7552-16.346c-2.8821-13.787-6.0326-32.224-7.1446-50.911-1.1148-18.741-0.15992-37.47 4.9858-51.98 5.1025-14.387 14.173-24.321 29.354-26.444z" fill="#1880ff" stroke="#1059b1" stroke-width="5.2734"/>
    <path d="m217.8 242.12c-4.5419 17.651-16.261 21.286-24.444 11.768-2.6624-3.0963-4.9472-7.401-6.6732-12.466m53.408 33.812c-4.5419 17.65-16.261 21.286-24.444 11.768-2.6625-3.0962-4.9472-7.401-6.6731-12.466m51.566-32.417c-4.5419 17.651-16.261 21.286-24.444 11.768-2.6625-3.0963-4.9472-7.401-6.6732-12.466m73.858 0.69753c-4.5419 17.651-16.261 21.286-24.444 11.768-2.6624-3.0963-4.9472-7.401-6.6731-12.466m73.858 0.69753c-4.5419 17.651-16.261 21.286-24.444 11.768-2.6625-3.0963-4.9472-7.401-6.6731-12.466m-32.074 33.812c-4.5419 17.65-16.261 21.286-24.444 11.768-2.6624-3.0962-4.9472-7.401-6.6731-12.466m73.858 0.69754c-4.5419 17.65-16.261 21.286-24.444 11.768-2.6625-3.0962-4.9472-7.401-6.6732-12.466m-35.538 32.007c-4.5428 17.651-16.261 21.286-24.445 11.768-2.6616-3.0962-4.9463-7.401-6.6722-12.466m73.858 0.69755c-4.5419 17.651-16.261 21.286-24.444 11.768-2.6624-3.0962-4.9472-7.401-6.6731-12.466" fill="none" stroke="#1059b1" stroke-width="4.7468"/>
  </g>
</svg>
